<svg width="740" height="724" viewBox="0 0 740 724" fill="none" xmlns="http://www.w3.org/2000/svg">
<path d="M415.5 407V132C415.5 61.3076 358.192 4 287.5 4C216.808 4 159.5 61.3076 159.5 132V407" stroke="#C78365" stroke-width="8"/>
<path d="M580.5 407V132C580.5 61.3076 523.192 4 452.5 4C381.808 4 324.5 61.3076 324.5 132V407" stroke="#C78365" stroke-width="8"/>
<line x1="391.5" y1="202" x2="438.5" y2="202" stroke="#C78365" stroke-width="8" stroke-linecap="round"/>
<line x1="300.5" y1="202" x2="347.5" y2="202" stroke="#C78365" stroke-width="8" stroke-linecap="round"/>
<path d="M320.285 497.22C320.839 497.22 321.338 497.347 321.781 497.6C322.335 497.853 322.612 498.17 322.612 498.55V602.134C322.612 605.809 322.944 608.596 323.609 610.497C324.385 612.398 325.826 613.665 327.931 614.298C330.148 614.932 333.362 615.248 337.573 615.248C337.905 615.248 338.071 615.629 338.071 616.389C338.071 617.149 337.905 617.529 337.573 617.529C335.024 617.529 332.087 617.466 328.762 617.339C325.438 617.213 321.947 617.149 318.29 617.149C314.522 617.149 311.031 617.213 307.817 617.339C304.603 617.466 301.722 617.529 299.173 617.529C298.841 617.529 298.675 617.149 298.675 616.389C298.675 615.629 298.841 615.248 299.173 615.248C303.495 615.248 306.653 614.932 308.648 614.298C310.754 613.665 312.139 612.398 312.804 610.497C313.469 608.596 313.802 605.809 313.802 602.134V512.155L240.992 619.24C240.66 619.747 240.05 620 239.164 620C238.61 620 238.056 619.873 237.502 619.62C237.058 619.493 236.837 619.176 236.837 618.67V514.135C236.837 510.461 236.448 507.737 235.673 505.963C235.008 504.062 233.567 502.795 231.351 502.162C229.245 501.401 226.087 501.021 221.876 501.021C221.654 501.021 221.543 500.641 221.543 499.881C221.543 499.12 221.654 498.741 221.876 498.741C224.536 498.741 227.527 498.867 230.852 499.12C234.177 499.247 237.612 499.311 241.159 499.311C245.037 499.311 248.528 499.247 251.631 499.12C254.845 498.867 257.782 498.741 260.441 498.741C260.663 498.741 260.774 499.12 260.774 499.881C260.774 500.641 260.663 501.021 260.441 501.021C256.23 501.021 253.016 501.401 250.8 502.162C248.694 502.795 247.309 504.062 246.644 505.963C245.979 507.737 245.647 510.461 245.647 514.135V605.492L318.622 497.98C318.955 497.473 319.509 497.22 320.285 497.22ZM159.435 496.649C167.636 496.65 174.95 498.36 181.378 501.782C187.916 505.076 193.457 509.574 198.001 515.276C202.545 520.977 205.98 527.44 208.307 534.662C210.745 541.884 211.964 549.297 211.964 556.899C211.964 565.769 210.413 574.005 207.31 581.607C204.207 589.21 199.94 595.862 194.51 601.564C189.191 607.266 182.985 611.764 175.892 615.058C168.91 618.226 161.485 619.81 153.617 619.81C145.638 619.81 138.379 618.226 131.841 615.058C125.413 611.764 119.872 607.266 115.218 601.564C110.674 595.862 107.128 589.336 104.579 581.987C102.141 574.512 100.922 566.593 100.922 558.23C100.922 547.966 102.64 538.97 106.075 531.241C109.621 523.512 114.276 517.113 120.038 512.045C125.801 506.85 132.118 502.985 138.988 500.451C145.859 497.917 152.675 496.649 159.435 496.649ZM92.0918 493.228C92.6457 493.228 92.9227 493.482 92.9231 493.989C92.8123 495.889 92.6461 498.424 92.4245 501.591C92.203 504.759 92.0368 508.117 91.926 511.665C91.8149 515.086 91.7041 518.317 91.5933 521.358C91.4825 524.272 91.4271 526.49 91.4271 528.01C91.4267 528.263 91.0948 528.39 90.4297 528.39C89.7654 528.39 89.4323 528.263 89.4323 528.01C89.4323 518.253 87.9917 511.474 85.1103 507.673C82.2292 503.872 76.9651 501.971 69.3185 501.971C64.1098 501.971 60.1756 502.225 57.516 502.732C54.9673 503.112 53.2494 504.189 52.3628 505.963C51.5873 507.61 51.1992 510.461 51.1992 514.515V602.134C51.1992 605.809 51.5873 608.596 52.3628 610.497C53.1386 612.398 54.69 613.665 57.0171 614.298C59.4551 614.932 63.1124 615.248 67.9887 615.248C68.2103 615.248 68.3207 615.629 68.3207 616.389C68.3207 617.149 68.2103 617.529 67.9887 617.529C65.1073 617.529 61.8381 617.466 58.1811 617.339C54.6346 617.213 50.7557 617.149 46.5444 617.149C42.5551 617.149 38.7316 617.213 35.0747 617.339C31.5285 617.466 28.2594 617.529 25.2673 617.529C25.0456 617.529 24.9347 617.149 24.9347 616.389C24.9347 615.629 25.0456 615.248 25.2673 615.248C30.0325 615.248 33.6342 614.932 36.0723 614.298C38.5104 613.665 40.1168 612.398 40.8926 610.497C41.7793 608.596 42.2228 605.809 42.2228 602.134V514.135C42.2228 510.081 41.7793 507.23 40.8926 505.582C40.006 503.809 38.2327 502.795 35.5733 502.541C32.9136 502.161 28.9795 501.971 23.7711 501.971C16.7895 501.971 11.6917 503.872 8.47787 507.673C5.37491 511.474 3.21385 518.253 1.99482 528.01C1.99464 528.263 1.66197 528.39 0.997222 528.39C0.332586 528.39 0.000178263 528.263 0 528.01C0.221641 526.49 0.443299 524.272 0.664939 521.358C0.997403 518.443 1.27456 515.339 1.4962 512.045C1.71784 508.624 1.884 505.393 1.99482 502.352C2.21646 499.184 2.3271 496.586 2.3271 494.559C2.32716 493.925 2.65983 493.609 3.32469 493.609C3.98952 493.609 4.32187 493.925 4.32191 494.559C4.32191 495.826 4.82073 496.777 5.81811 497.41C6.92627 497.917 8.14533 498.297 9.4751 498.55C10.9157 498.677 12.1347 498.74 13.1321 498.741C22.6626 499.121 33.8002 499.311 46.5444 499.311C54.4126 499.311 60.6191 499.247 65.1627 499.12C69.817 498.867 74.3052 498.741 78.6272 498.741C82.2846 498.74 85.1103 498.487 87.1051 497.98C89.2107 497.347 90.5405 496.016 91.0948 493.989C91.2056 493.482 91.5379 493.229 92.0918 493.228ZM472.702 493.228C473.256 493.228 473.534 493.482 473.534 493.989C473.421 495.889 473.256 498.424 473.037 501.591C472.815 504.759 472.649 508.117 472.536 511.665C472.427 515.086 472.314 518.317 472.204 521.358C472.095 524.272 472.038 526.49 472.038 528.01C472.038 528.263 471.707 528.39 471.04 528.39C470.377 528.39 470.041 528.263 470.041 528.01C470.041 518.253 468.602 511.474 465.719 507.673C462.841 503.872 457.577 501.971 449.931 501.971C444.72 501.971 440.786 502.225 438.125 502.732C435.578 503.112 433.86 504.189 432.975 505.963C432.198 507.61 431.81 510.461 431.81 514.515V602.134C431.81 605.809 432.198 608.596 432.975 610.497C433.751 612.398 435.299 613.665 437.628 614.298C440.066 614.932 443.725 615.248 448.601 615.248C448.819 615.248 448.932 615.629 448.932 616.389C448.932 617.149 448.819 617.529 448.601 617.529C445.718 617.529 442.448 617.466 438.792 617.339C435.247 617.213 431.366 617.149 427.157 617.149C423.166 617.149 419.342 617.213 415.686 617.339C412.141 617.466 408.87 617.529 405.878 617.529C405.656 617.529 405.546 617.149 405.546 616.389C405.546 615.629 405.656 615.248 405.878 615.248C410.645 615.248 414.243 614.932 416.681 614.298C419.123 613.665 420.728 612.398 421.504 610.497C422.39 608.596 422.835 605.809 422.835 602.134V514.135C422.835 510.081 422.39 507.23 421.504 505.582C420.619 503.809 418.844 502.795 416.184 502.541C413.524 502.161 409.59 501.971 404.382 501.971C397.4 501.971 392.302 503.872 389.087 507.673C385.986 511.474 383.823 518.253 382.606 528.01C382.606 528.263 382.275 528.39 381.608 528.39C380.944 528.39 380.609 528.263 380.609 528.01C380.831 526.49 381.054 524.272 381.276 521.358C381.608 518.443 381.886 515.339 382.109 512.045C382.327 508.624 382.493 505.393 382.606 502.352C382.829 499.184 382.938 496.586 382.938 494.559C382.938 493.925 383.269 493.609 383.936 493.609C384.6 493.609 384.931 493.925 384.931 494.559C384.931 495.826 385.432 496.777 386.431 497.41C387.539 497.917 388.756 498.297 390.086 498.55C391.525 498.677 392.746 498.74 393.745 498.741C403.274 499.121 414.413 499.311 427.157 499.311C435.024 499.311 441.23 499.247 445.775 499.12C450.428 498.867 454.916 498.741 459.238 498.741C462.897 498.74 465.719 498.487 467.716 497.98C469.823 497.347 471.153 496.016 471.707 493.989C471.816 493.482 472.148 493.229 472.702 493.228ZM522.045 498.741C522.267 498.741 522.38 499.12 522.38 499.881C522.38 500.641 522.267 501.021 522.045 501.021C517.836 501.021 514.678 501.401 512.572 502.162C510.466 502.922 509.026 504.252 508.25 506.153C507.583 508.054 507.251 510.841 507.251 514.515V602.134C507.251 605.809 507.583 608.596 508.25 610.497C508.913 612.398 510.3 613.665 512.406 614.298C514.622 614.932 517.836 615.248 522.045 615.248C522.267 615.248 522.38 615.629 522.38 616.389C522.38 617.149 522.267 617.529 522.045 617.529C519.385 617.529 516.449 617.466 513.235 617.339C510.021 617.213 506.475 617.149 502.598 617.149C498.939 617.149 495.45 617.213 492.126 617.339C488.912 617.466 485.973 617.529 483.313 617.529C482.981 617.529 482.815 617.149 482.815 616.389C482.815 615.629 482.981 615.248 483.313 615.248C487.525 615.248 490.683 614.932 492.789 614.298C495.005 613.665 496.448 612.398 497.111 610.497C497.888 608.596 498.276 605.809 498.276 602.134V514.135C498.276 510.461 497.888 507.737 497.111 505.963C496.448 504.062 495.005 502.795 492.789 502.162C490.683 501.401 487.525 501.021 483.313 501.021C482.981 501.021 482.815 500.641 482.815 499.881C482.815 499.121 482.981 498.741 483.313 498.741C485.973 498.741 488.912 498.867 492.126 499.12C495.45 499.247 498.939 499.311 502.598 499.311C506.475 499.311 510.021 499.247 513.235 499.12C516.562 498.867 519.498 498.741 522.045 498.741ZM657.704 498.741C657.927 498.741 658.036 499.121 658.036 499.881C658.036 500.641 657.927 501.021 657.704 501.021C652.275 501.021 648.284 501.845 645.737 503.492C643.186 505.012 641.969 508.433 642.078 513.755L645.236 602.134C645.349 605.809 645.737 608.596 646.4 610.497C647.176 612.398 648.616 613.665 650.722 614.298C652.829 614.932 655.986 615.248 660.199 615.248C660.531 615.248 660.696 615.629 660.696 616.389C660.696 617.149 660.531 617.529 660.199 617.529C657.539 617.529 654.547 617.466 651.22 617.339C648.005 617.213 644.573 617.149 640.914 617.149C637.477 617.149 634.32 617.213 631.441 617.339C628.558 617.466 625.954 617.529 623.626 617.529C623.403 617.529 623.294 617.149 623.294 616.389C623.294 615.629 623.403 615.248 623.626 615.248C629.169 615.248 632.714 614.425 634.267 612.778C635.929 611.131 636.648 607.583 636.426 602.134L633.6 513.664L594.702 616.199C594.592 616.705 594.148 616.959 593.372 616.959C592.595 616.959 592.098 616.705 591.876 616.199L551.316 514.515C551.259 514.375 551.203 514.235 551.146 514.095L549.82 597.763C549.711 604.225 550.596 608.786 552.48 611.447C554.473 613.981 558.241 615.248 563.784 615.248C564.007 615.248 564.116 615.629 564.116 616.389C564.116 617.149 564.007 617.529 563.784 617.529C561.346 617.529 558.795 617.466 556.135 617.339C553.588 617.213 550.762 617.149 547.661 617.149C545 617.149 542.449 617.213 540.011 617.339C537.573 617.466 535.248 617.529 533.029 617.529C532.811 617.529 532.697 617.149 532.697 616.389C532.697 615.629 532.811 615.248 533.029 615.248C537.686 615.248 540.953 613.981 542.837 611.447C544.835 608.786 545.886 604.225 545.995 597.763L547.582 507.685C544.186 503.242 539.721 501.021 534.193 501.021C533.971 501.021 533.862 500.641 533.862 499.881C533.862 499.12 533.971 498.741 534.193 498.741C535.855 498.741 537.63 498.804 539.514 498.93C541.398 499.057 542.951 499.12 544.168 499.12C545.72 499.12 547.159 499.057 548.49 498.93C549.82 498.804 550.818 498.741 551.482 498.741C553.034 498.741 554.251 499.31 555.14 500.451C556.026 501.591 557.356 504.315 559.127 508.624L596.541 601.08L633.766 503.492C634.32 502.098 635.039 500.958 635.929 500.071C636.923 499.184 637.865 498.741 638.755 498.741C639.309 498.741 640.138 498.804 641.245 498.93C642.357 499.057 643.631 499.12 645.07 499.12C647.953 499.12 650.278 499.057 652.052 498.93C653.823 498.804 655.707 498.741 657.704 498.741ZM733.018 498.741C734.016 498.741 734.517 499.311 734.517 500.451L734.849 523.448C734.849 523.828 734.517 524.019 733.85 524.019C733.297 524.019 733.018 523.828 733.018 523.448C733.018 516.86 731.522 511.728 728.53 508.053C725.538 504.252 721.604 502.352 716.728 502.352H705.258C701.158 502.352 698.057 502.668 695.951 503.302C693.954 503.935 692.571 505.202 691.795 507.103C691.128 508.877 690.796 511.601 690.796 515.276V553.858H712.738C717.836 553.858 721.382 552.908 723.379 551.008C725.372 548.98 726.371 545.559 726.371 540.744C726.371 540.491 726.702 540.364 727.369 540.364C728.032 540.364 728.364 540.491 728.364 540.744C728.364 544.419 728.311 547.27 728.198 549.297V555.759C728.198 558.547 728.255 561.334 728.364 564.122C728.477 566.783 728.53 569.697 728.53 572.865C728.53 573.118 728.198 573.245 727.535 573.245C726.868 573.244 726.537 573.118 726.537 572.865C726.537 567.163 725.485 563.171 723.379 560.891C721.272 558.61 717.561 557.47 712.24 557.47H690.796V601.374C690.796 604.921 691.128 607.583 691.795 609.357C692.571 611.131 693.954 612.334 695.951 612.968C698.057 613.601 701.158 613.918 705.258 613.918H720.553C724.984 613.918 728.809 611.7 732.023 607.266C735.237 602.831 737.23 597.003 738.007 589.78C738.007 589.4 738.338 589.273 739.005 589.4C739.668 589.4 740 589.59 740 589.97C739.559 593.265 739.171 597.256 738.839 601.944C738.617 606.506 738.504 610.751 738.504 614.678C738.504 616.579 737.619 617.529 735.844 617.529H667.193C666.97 617.529 666.861 617.149 666.861 616.389C666.861 615.629 666.97 615.248 667.193 615.248C671.402 615.248 674.563 614.932 676.666 614.298C678.772 613.665 680.159 612.398 680.822 610.497C681.598 608.596 681.986 605.809 681.986 602.134V514.135C681.986 510.461 681.598 507.737 680.822 505.963C680.159 504.062 678.772 502.795 676.666 502.162C674.563 501.401 671.402 501.021 667.193 501.021C666.97 501.021 666.861 500.641 666.861 499.881C666.861 499.12 666.97 498.741 667.193 498.741H733.018ZM152.454 500.831C139.598 500.831 129.569 505.393 122.366 514.515C116.913 521.422 113.524 530.215 112.199 540.896C118.879 522.894 132.074 510.945 151.333 510.945C165.648 510.945 177.101 521.788 177.101 536.654C177.101 560.789 141.732 571.982 141.732 596.816C141.732 605.14 144.892 612.056 151.014 615.164C153.763 615.726 156.625 616.009 159.601 616.009C167.359 616.009 174.396 613.981 180.713 609.927C187.03 605.746 192.016 599.664 195.674 591.681C199.441 583.572 201.326 573.751 201.326 562.221C201.326 550.184 199.275 539.604 195.175 530.481C191.185 521.231 185.533 514.009 178.219 508.814C170.905 503.492 162.317 500.831 152.454 500.831ZM151.333 512.694C129.391 512.694 116.805 528.886 111.625 548.171C111.582 549.35 111.56 550.549 111.56 551.768C111.56 560.637 112.669 569 114.885 576.856C117.212 584.585 120.481 591.427 124.693 597.383C129.015 603.211 134.113 607.773 139.986 611.067C141.961 612.175 144.012 613.096 146.137 613.831C142.112 609.936 140.048 603.944 140.048 596.816C140.048 571.107 175.417 559.739 175.417 536.654C175.417 522.662 164.806 512.694 151.333 512.694ZM301.833 467C303.274 467 304.326 467.507 304.991 468.521C305.656 469.407 305.989 470.675 305.989 472.322C305.989 475.363 304.88 478.214 302.664 480.875C300.447 483.409 297.622 485.499 294.186 487.146C290.751 488.667 287.094 489.427 283.215 489.427C279.336 489.427 275.624 488.604 272.077 486.957C268.642 485.309 265.872 483.155 263.766 480.495C261.66 477.834 260.608 475.046 260.608 472.132C260.608 470.484 260.94 469.217 261.605 468.33C262.381 467.443 263.433 467 264.764 467C266.98 467 268.476 467.887 269.252 469.661C270.027 471.308 270.692 473.335 271.247 475.743C271.911 478.53 273.186 481.191 275.07 483.725C276.954 486.133 279.613 487.337 283.049 487.337C286.373 487.337 289.033 486.196 291.028 483.916C293.134 481.635 294.574 478.911 295.35 475.743C295.904 473.462 296.569 471.435 297.345 469.661C298.231 467.887 299.727 467 301.833 467Z" fill="#C78365"/>
<path d="M144.988 723V680.329H173.517V683.133H148.097V720.196H174.431V723H144.988ZM147.731 702.701V699.957H170.835V702.701H147.731ZM195.595 723L176.576 680.329H179.99L198.156 721.11H196.266L214.493 680.329H217.723L198.704 723H195.595ZM223.08 723V680.329H251.609V683.133H226.189V720.196H252.524V723H223.08ZM225.823 702.701V699.957H248.927V702.701H225.823ZM262.335 723V680.329H264.956L295.375 719.16H293.973V680.329H297.082V723H294.521L264.042 684.169H265.444V723H262.335ZM318.628 723V683.133H303.266V680.329H337.098V683.133H321.737V723H318.628ZM350.285 723L369.914 680.329H373.022L392.651 723H389.299L370.767 682.279H372.108L353.637 723H350.285ZM357.478 710.991L358.514 708.37H384.056L385.092 710.991H357.478ZM416.506 723.305C413.295 723.305 410.328 722.776 407.605 721.72C404.883 720.623 402.505 719.099 400.473 717.148C398.482 715.197 396.938 712.921 395.84 710.32C394.743 707.679 394.194 704.793 394.194 701.664C394.194 698.535 394.743 695.67 395.84 693.069C396.938 690.427 398.502 688.131 400.534 686.181C402.566 684.23 404.923 682.726 407.605 681.67C410.328 680.572 413.315 680.024 416.566 680.024C419.655 680.024 422.52 680.511 425.162 681.487C427.803 682.462 430.059 683.925 431.928 685.876L429.978 687.948C428.108 686.12 426.056 684.819 423.821 684.047C421.626 683.275 419.228 682.889 416.627 682.889C413.864 682.889 411.304 683.356 408.947 684.291C406.589 685.226 404.537 686.546 402.79 688.253C401.042 689.96 399.681 691.951 398.705 694.227C397.771 696.503 397.303 698.982 397.303 701.664C397.303 704.346 397.771 706.825 398.705 709.101C399.681 711.377 401.042 713.368 402.79 715.075C404.537 716.782 406.589 718.103 408.947 719.038C411.304 719.972 413.864 720.44 416.627 720.44C419.147 720.44 421.524 720.054 423.76 719.281C426.035 718.509 428.108 717.229 429.978 715.441L431.745 717.818C429.835 719.647 427.539 721.029 424.857 721.964C422.215 722.858 419.432 723.305 416.506 723.305ZM431.745 717.818L428.758 717.453V701.847H431.745V717.818ZM443.903 723V680.329H472.432V683.133H447.012V720.196H473.346V723H443.903ZM446.646 702.701V699.957H469.75V702.701H446.646ZM483.157 723V680.329H485.779L516.197 719.16H514.795V680.329H517.904V723H515.344L484.864 684.169H486.266V723H483.157ZM549.326 723.305C546.156 723.305 543.21 722.776 540.487 721.72C537.804 720.623 535.468 719.099 533.476 717.148C531.485 715.197 529.941 712.921 528.843 710.32C527.746 707.679 527.198 704.793 527.198 701.664C527.198 698.535 527.746 695.67 528.843 693.069C529.941 690.427 531.485 688.131 533.476 686.181C535.508 684.23 537.865 682.726 540.548 681.67C543.23 680.572 546.156 680.024 549.326 680.024C552.333 680.024 555.137 680.511 557.738 681.487C560.38 682.462 562.635 683.945 564.505 685.937L562.554 687.948C560.725 686.16 558.693 684.88 556.458 684.108C554.263 683.295 551.927 682.889 549.448 682.889C546.725 682.889 544.185 683.356 541.828 684.291C539.511 685.226 537.479 686.546 535.732 688.253C534.025 689.96 532.684 691.951 531.709 694.227C530.774 696.503 530.306 698.982 530.306 701.664C530.306 704.346 530.774 706.825 531.709 709.101C532.684 711.377 534.025 713.368 535.732 715.075C537.479 716.782 539.511 718.103 541.828 719.038C544.185 719.972 546.725 720.44 549.448 720.44C551.927 720.44 554.263 720.054 556.458 719.281C558.693 718.469 560.725 717.148 562.554 715.319L564.505 717.331C562.635 719.322 560.38 720.826 557.738 721.842C555.137 722.817 552.333 723.305 549.326 723.305ZM581.845 723V707.516L582.576 709.528L564.654 680.329H568.068L584.344 706.846H582.637L598.913 680.329H602.144L584.222 709.528L584.954 707.516V723H581.845Z" fill="#C78365"/>
</svg>
